<svg width="476" height="281" viewBox="0 0 476 281" fill="none" xmlns="http://www.w3.org/2000/svg">
<path d="M207.603 142H213.425V100.252H213.78L217.969 108.559L229.826 130.143L241.683 108.559L245.872 100.252H246.227V142H252.049V92.4419H244.381L230.11 119.138H229.755L215.555 92.4419H207.603V142Z" fill="black"/>
<path d="M282.758 142V137.03H275.8V97.4119H282.758V92.4419H262.878V97.4119H269.836V137.03H262.878V142H282.758Z" fill="black"/>
<path d="M325.611 97.6959V92.4419H288.123V97.6959H303.885V142H309.849V97.6959H325.611Z" fill="black"/>
<path d="M347.085 123.469V117.363H328.554V123.469H347.085Z" fill="black"/>
<path d="M374.004 142V137.03H367.046V97.4119H374.004V92.4419H354.124V97.4119H361.082V137.03H354.124V142H374.004Z" fill="black"/>
<path d="M384.895 142H407.402C414.715 142 420.182 135.823 420.182 127.658C420.182 119.422 414.005 116.369 410.455 116.156V115.73C413.721 115.233 418.478 112.606 418.478 105.222C418.478 97.4829 413.437 92.4419 405.272 92.4419H384.895V142ZM390.859 118.996H405.556C410.668 118.996 413.792 121.694 413.792 126.664V129.078C413.792 134.048 410.668 136.746 405.556 136.746H390.859V118.996ZM390.859 97.6959H404.562C409.248 97.6959 412.088 100.181 412.088 104.583V106.997C412.088 111.399 409.248 113.884 404.562 113.884H390.859V97.6959Z" fill="black"/>
<path d="M431.281 142H437.103V100.252H437.458L441.647 108.559L453.504 130.143L465.361 108.559L469.55 100.252H469.905V142H475.727V92.4419H468.059L453.788 119.138H453.433L439.233 92.4419H431.281V142Z" fill="black"/>
<path d="M221.093 211L227.696 186.292L232.382 168.116H232.524L237.068 186.292L243.529 211H250.132L262.841 161.442H256.735L251.126 185.298L246.866 203.758H246.653L242.038 185.298L236.003 161.442H229.187L222.939 185.298L218.324 203.829H218.182L214.064 185.298L208.739 161.442H202.42L214.49 211H221.093Z" fill="black"/>
<path d="M299.396 211V206.03H295.207V185.866C295.207 178.127 289.953 173.512 281.149 173.512C274.546 173.512 270.144 176.778 268.156 180.683L271.564 183.878C273.552 180.541 276.463 178.411 280.865 178.411C286.687 178.411 289.527 181.251 289.527 186.434V190.055H282.285C271.635 190.055 266.665 193.889 266.665 200.776C266.665 207.592 271.209 211.852 278.948 211.852C284.06 211.852 287.965 209.509 289.527 205.036H289.882C290.308 208.444 292.012 211 296.201 211H299.396ZM279.871 207.024C275.469 207.024 272.629 204.965 272.629 201.344V199.853C272.629 196.303 275.54 194.315 282.001 194.315H289.527V200.35C289.527 204.113 285.48 207.024 279.871 207.024Z" fill="black"/>
<path d="M322.697 211V206.03H315.242V179.334H323.265V174.364H315.242V164.211H310.13V171.027C310.13 173.512 309.349 174.364 306.935 174.364H303.527V179.334H309.562V204.965C309.562 208.515 311.692 211 315.597 211H322.697Z" fill="black"/>
<path d="M343.399 211.852C351.777 211.852 356.96 207.521 356.96 200.421C356.96 194.883 353.836 191.333 345.742 190.126L342.902 189.7C338.358 188.99 335.873 187.57 335.873 184.02C335.873 180.541 338.358 178.34 343.044 178.34C347.73 178.34 350.854 180.541 352.487 182.813L356.25 179.405C353.268 175.713 349.363 173.512 343.47 173.512C336.015 173.512 330.406 177.062 330.406 184.304C330.406 191.12 335.447 193.889 342.192 194.883L345.103 195.309C349.931 196.019 351.493 198.22 351.493 201.06C351.493 204.823 348.653 207.024 343.825 207.024C339.21 207.024 335.802 204.965 332.962 201.415L328.915 204.681C332.181 209.012 336.654 211.852 343.399 211.852Z" fill="black"/>
<path d="M380.838 211.852C390.636 211.852 397.381 204.326 397.381 192.682C397.381 181.038 390.636 173.512 380.838 173.512C371.04 173.512 364.295 181.038 364.295 192.682C364.295 204.326 371.04 211.852 380.838 211.852ZM380.838 206.811C374.732 206.811 370.401 203.048 370.401 195.309V190.055C370.401 182.316 374.732 178.553 380.838 178.553C386.944 178.553 391.275 182.316 391.275 190.055V195.309C391.275 203.048 386.944 206.811 380.838 206.811Z" fill="black"/>
<path d="M412.403 211V185.582C412.403 180.896 416.805 178.624 421.349 178.624C426.816 178.624 429.656 181.961 429.656 188.493V211H435.336V187.499C435.336 178.624 430.579 173.512 423.053 173.512C417.586 173.512 414.462 176.21 412.687 180.328H412.403V174.364H406.723V211H412.403Z" fill="black"/>
<path d="M244.878 280L227.554 230.442H219.957L202.633 280H208.668L213.638 265.374H233.66L238.63 280H244.878ZM232.169 260.12H215.058L223.436 235.98H223.791L232.169 260.12Z" fill="black"/>
<path d="M270.624 280V275.03H263.666V235.412H270.624V230.442H250.744V235.412H257.702V275.03H250.744V280H270.624Z" fill="black"/>
<path d="M325.345 280V274.746H304.258V230.442H298.294V280H325.345Z" fill="black"/>
<path d="M363.046 280V275.03H358.857V254.866C358.857 247.127 353.603 242.512 344.799 242.512C338.196 242.512 333.794 245.778 331.806 249.683L335.214 252.878C337.202 249.541 340.113 247.411 344.515 247.411C350.337 247.411 353.177 250.251 353.177 255.434V259.055H345.935C335.285 259.055 330.315 262.889 330.315 269.776C330.315 276.592 334.859 280.852 342.598 280.852C347.71 280.852 351.615 278.509 353.177 274.036H353.532C353.958 277.444 355.662 280 359.851 280H363.046ZM343.521 276.024C339.119 276.024 336.279 273.965 336.279 270.344V268.853C336.279 265.303 339.19 263.315 345.651 263.315H353.177V269.35C353.177 273.113 349.13 276.024 343.521 276.024Z" fill="black"/>
<path d="M371.153 280H376.833V274.036H377.117C379.318 278.58 382.797 280.852 387.838 280.852C396.997 280.852 402.748 273.397 402.748 261.682C402.748 249.967 396.997 242.512 387.838 242.512C382.797 242.512 379.034 244.713 377.117 249.328H376.833V227.46H371.153V280ZM386.276 275.74C381.093 275.74 376.833 273.042 376.833 268.285V254.653C376.833 250.606 381.093 247.624 386.276 247.624C392.666 247.624 396.642 252.026 396.642 258.558V264.806C396.642 271.338 392.666 275.74 386.276 275.74Z" fill="black"/>
<path fill-rule="evenodd" clip-rule="evenodd" d="M165 165L92 165L92 161L165 161L165 165Z" fill="#BE2FA8"/>
<path fill-rule="evenodd" clip-rule="evenodd" d="M165 142H0V138H165V142Z" fill="#A03AB7"/>
<path fill-rule="evenodd" clip-rule="evenodd" d="M165 119H0V115H165V119Z" fill="#8C41C0"/>
<path fill-rule="evenodd" clip-rule="evenodd" d="M165 96H0V92H165V96Z" fill="#7748CA"/>
<path fill-rule="evenodd" clip-rule="evenodd" d="M165 73H0V69H165V73Z" fill="#624FD5"/>
<path fill-rule="evenodd" clip-rule="evenodd" d="M165 50H0V46H165V50Z" fill="#4F56DE"/>
<path fill-rule="evenodd" clip-rule="evenodd" d="M165 27H0V23H165V27Z" fill="#3B5DE8"/>
<path fill-rule="evenodd" clip-rule="evenodd" d="M165 4H0V0H165V4Z" fill="#0062FF"/>
<path fill-rule="evenodd" clip-rule="evenodd" d="M92 280V184H96V280H92Z" fill="#BE2FA8"/>
<path fill-rule="evenodd" clip-rule="evenodd" d="M69 280V161H73V280H69Z" fill="#B62B86"/>
<path fill-rule="evenodd" clip-rule="evenodd" d="M46 280V161H50V280H46Z" fill="#B12870"/>
<path fill-rule="evenodd" clip-rule="evenodd" d="M23 280V161H27V280H23Z" fill="#AB2457"/>
<path fill-rule="evenodd" clip-rule="evenodd" d="M0 280V161H4V280H0Z" fill="#A31F34"/>
</svg>
